.
..............................Site Info...........................

 -   http://www.scenetime.com  *_*    

Scenetime .Always on time . friendly online private torrent community ..

     We care to share . Join us on  http://www.scenetime.com 

    Be the first to get new release at  http://www.scenetime.com

        Seed back for speed


...................................NFO:.................................................[IMG]http://i.imgur.com/qD9lu.gif[/IMG]

 
TITLE: 

Hit And Run 2012 TS XViD - INSPiRAL

IMDB: 
 
http://www.imdb.com/title/tt2097307/


SOURCES:

VIDEO - 720P Matine THANKS
AUDIO - 720p Matine THANKS
SUBS  - None Add

STATS:

Video
ID                               : 0
Format                           : MPEG-4 Visual
Format profile                   : Advanced Simple@L5
Format settings, BVOP            : 2
Format settings, QPel            : No
Format settings, GMC             : No warppoints
Format settings, Matrix          : Default (MPEG)
Muxing mode                      : Packed bitstream
Codec ID                         : XVID
Codec ID/Hint                    : XviD
Duration                         : 1h 32mn
Bit rate                         : 1 995 Kbps
Width                            : 720 pixels
Height                           : 304 pixels
Display aspect ratio             : 2.35:1
Frame rate                       : 25.000 fps
Color space                      : YUV
Chroma subsampling               : 4:2:0
Bit depth                        : 8 bits
Scan type                        : Progressive
Compression mode                 : Lossy
Bits/(Pixel*Frame)               : 0.365
Stream size                      : 1.30 GiB (94%)
Writing library                  : XviD 64

Audio
ID                               : 1
Format                           : MPEG Audio
Format version                   : Version 1
Format profile                   : Layer 3
Codec ID                         : 55
Codec ID/Hint                    : MP3
Duration                         : 1h 32mn
Bit rate mode                    : Constant
Bit rate                         : 128 Kbps
Channel(s)                       : 2 channels
Sampling rate                    : 44.1 KHz
Compression mode                 : Lossy
Stream size                      : 85.1 MiB (6%)
Alignment                        : Split accross interleaves
Interleave, duration             : 40 ms (1.00 video frame)
Interleave, preload duration     : 500 ms



NOTES:
Ok late with this one but hey ho ...better late than never :P
Right used matines 720p and cleaned it up....changed the brightness,contrast,slight tweak on the colours,also
toned down the glare and also slightly changed the perspective pulling the right side mainly.
Audio we stripped and cleaned in AA changed all the EQ bands,then saved as mp3 and remuxed.

Enjoy folks ...



SCREENS:

[img]http://i.imgrz.com/SAnF.png[/img] 
[img]http://i.imgrz.com/DuLJc.png[/img] 
[img]http://i.imgrz.com/mstqv.png[/img] 
[img]http://i.imgrz.com/NVMfu.png[/img] 
[img]http://i.imgrz.com/RPdAC.png[/img] 
[img]http://i.imgrz.com/Dhayn.png[/img] 
[img]http://i.imgrz.com/OERTC.png[/img] 

GREETZ: 

Past,Present and Future

[IMG]http://i.imgur.com/qD9lu.gif[/IMG]